<?xml version="1.0" encoding="utf-8"?>
<!-- Generator: Adobe Illustrator 21.0.0, SVG Export Plug-In . SVG Version: 6.00 Build 0)  -->
<svg version="1.1" id="Livello_1" xmlns="http://www.w3.org/2000/svg" xmlns:xlink="http://www.w3.org/1999/xlink" x="0px" y="0px"
	 viewBox="0 0 1116.6 320.3" style="enable-background:new 0 0 1116.6 320.3;" xml:space="preserve">
<style type="text/css">
	.st0{fill:none;stroke:#000000;stroke-width:0.25;stroke-miterlimit:10;}
</style>
<path d="M937.2,142.5c0.2,3.2,0.4,6.2,0.6,9.2c0.2,2.3,0.4,4.6,0.5,7c0,1.4,0.5,1.9,2,1.8c13.2-0.1,26.4-0.2,39.6-0.3
	c17.8-0.1,35.6-0.2,53.4-0.4c1.2-0.1,2.3,0.6,2.7,1.8c13.3,30.7,26.5,61.4,39.8,92.1c0.6,1.3,1.1,1.5,2.4,1
	c9.4-3.5,18.9-6.8,28.3-10.3c1.3-0.5,1.6,0,2,1c2.3,5.7,4.7,11.3,7.1,17c0.3,0.7,0.6,1.3,1,2.1c-0.3,0.2-0.5,0.3-0.8,0.5
	c-18,7.1-36,14.1-53.9,21.2c-1,0.4-1.5,0.2-1.9-0.8c-10.7-25-21.3-50.1-32-75.1c-3.1-7.4-6.3-14.7-9.4-22.1
	c-0.3-1.1-1.4-1.8-2.5-1.6c-33.3,0-66.7,0-100,0c-2.3,0-2.2,0-2.4-2.2c-0.8-11.2-1.6-22.4-2.4-33.6s-1.6-22.3-2.4-33.5
	c-0.8-11.6-1.7-23.2-2.5-34.7c-0.7-10.4-1.6-20.7-2.2-31.1c-0.3-4.2-1.1-8.3-2.5-12.2c-3.2-9.6-1.7-18.5,4.7-26.5
	c4.3-5.5,10.5-9.2,17.4-10.3c8.1-1.5,15.1,0.7,21.5,5.4c12.5,9.4,15,27.1,5.6,39.6c-2.5,3.3-5.8,6.1-9.5,8c-2.7,1.4-5.8,2-8.8,2.9
	c-1.1,0.3-1.5,0.7-1.4,1.9c1.1,18.1,2.1,36.1,3.1,54.2c0.1,1.3,0.7,1.4,1.7,1.4c23,0,45.9,0,68.9,0c2.2,0,2.2,0,2.2,2.2
	c0,7.5,0,15,0,22.6c0,1.9,0,1.9-2,1.9h-66L937.2,142.5z M897.9,121.5c-7.2,3.4-13.9,7.6-20.1,12.5c-17.9,14.2-30.8,33.9-36.6,56
	c-1.8,6.9-2.9,13.9-3.4,21c-0.3,6.2,0,12.5,1,18.6c1.4,10.3,4.4,20.3,8.7,29.8c7.2,15.5,18,29.1,31.6,39.4c7,5.4,14.6,9.9,22.7,13.3
	c7.8,3.3,16,5.6,24.3,6.9c8.4,1.4,16.9,1.7,25.4,0.9c7.9-0.7,15.6-2.3,23.1-4.8c12.7-4.2,24.4-10.7,34.7-19.2
	c10.6-8.8,19.4-19.6,25.9-31.8c0.5-0.8,0.6-1.9,0.1-2.7c-5.7-11.6-11.4-23.2-17.1-34.9c-0.2-0.4-0.4-0.7-0.8-1.3
	c-0.1,0.6-0.2,0.9-0.2,1.2c-1.1,8.5-3.7,16.6-7.7,24.2c-9.6,18-23.9,30.5-43.2,37.2c-13.2,4.6-27.3,5.3-40.9,2.2
	c-9.9-2.2-19.2-6.4-27.4-12.4c-31.4-22.6-40.9-65.2-21.9-99c5.7-10.5,14-19.3,23.9-25.9c0.8-0.4,1.3-1.4,1.1-2.3
	c-0.7-8.8-1.4-17.6-2-26.5c-0.1-0.9-0.2-1.7-0.3-2.8C898.4,121.3,898.1,121.4,897.9,121.5L897.9,121.5z"/>
<path class="st0" d="M28.3,318.9V0"/>
</svg>
