<?xml version="1.0" encoding="utf-8"?>
<svg version="1.1" id="danger_wheelchair" xmlns="http://www.w3.org/2000/svg" xmlns:xlink="http://www.w3.org/1999/xlink" x="0px"
	 y="0px" viewBox="0 0 88 78.3" style="enable-background:new 0 0 88 78.3;" xml:space="preserve">
<style type="text/css">
	.st0{stroke:#FFFFFF;stroke-miterlimit:10;}
</style>
<path class="st0" d="M1.5,66.9L37.8,4.1c2-3.4,6.4-4.6,9.8-2.6c1.1,0.6,2,1.5,2.6,2.6l36.3,62.8c2,3.4,0.8,7.9-2.6,9.8
	c-1.1,0.6-2.3,1-3.6,1H7.7c-4,0-7.2-3.2-7.2-7.2C0.5,69.3,0.8,68,1.5,66.9z M60.7,45.1c-0.7-0.7-1.6-1-2.5-1l-11.2,0.6l6.2-7.1
	c0.9-1,1.1-2.3,0.8-3.5c-0.2-0.8-0.7-1.6-1.4-2c0,0-14.8-8.6-14.8-8.6c-1.2-0.7-2.7-0.5-3.8,0.4l-7.2,6.4c-1.3,1.2-1.4,3.2-0.3,4.6
	c1.2,1.3,3.2,1.4,4.6,0.3l5.5-4.9l4.5,2.6L33,42c-3.3,0.5-6.3,2.1-8.6,4.3l4.2,4.2c1.9-1.7,4.4-2.8,7.1-2.8
	c5.9,0,10.6,4.8,10.6,10.6c0,2.7-1,5.2-2.8,7.1l4.2,4.2c2.8-3,4.5-6.9,4.5-11.3c0-2.6-0.6-5.1-1.7-7.3l4.4-0.2l-1.1,13
	c-0.1,1.8,1.2,3.3,3,3.5c0.1,0,0.2,0,0.3,0c1.7,0,3.1-1.3,3.2-3l1.4-16.7C61.7,46.6,61.3,45.7,60.7,45.1z M54.7,31.2
	c3,0,5.4-2.4,5.4-5.4s-2.4-5.4-5.4-5.4c-3,0-5.4,2.4-5.4,5.4C49.3,28.8,51.7,31.2,54.7,31.2z M35.7,68.8c-5.9,0-10.6-4.8-10.6-10.6
	c0-2.2,0.7-4.3,1.8-6l-4.2-4.2c-2.2,2.8-3.5,6.3-3.5,10.2c0,9.1,7.4,16.5,16.5,16.5c3.8,0,7.4-1.3,10.2-3.5L41.6,67
	C39.9,68.2,37.9,68.8,35.7,68.8z"/>
</svg>
