<svg xmlns="http://www.w3.org/2000/svg" viewBox="0 0 462.24 590.67"><title>wheelchair_parking</title><path d="M396.53,415.86c.22,3.24.42,6.24.64,9.24.17,2.32.41,4.63.5,7,0,1.38.52,1.86,2,1.84,13.21-.15,26.41-.23,39.62-.32,17.81-.12,35.61-.22,53.42-.39A2.49,2.49,0,0,1,495.4,435q19.88,46.06,39.82,92.09c.58,1.35,1.12,1.48,2.4,1,9.41-3.46,18.86-6.81,28.26-10.29,1.28-.47,1.63,0,2,1,2.34,5.66,4.71,11.31,7.08,17,.28.68.62,1.33,1,2.1a6.33,6.33,0,0,1-.82.47q-27,10.6-53.91,21.21c-1,.39-1.48.22-1.91-.8q-16-37.57-32-75.12c-3.14-7.36-6.32-14.71-9.39-22.09a2.31,2.31,0,0,0-2.55-1.64q-50,0-100,0c-2.26,0-2.22,0-2.37-2.21q-1.18-16.8-2.39-33.59t-2.38-33.45Q367,373.28,365.77,356c-.74-10.36-1.57-20.71-2.17-31.08a45.82,45.82,0,0,0-2.47-12.23c-3.25-9.57-1.66-18.53,4.73-26.48a28.07,28.07,0,0,1,17.44-10.33c8.06-1.47,15.14.66,21.54,5.43a28.27,28.27,0,0,1-3.92,47.63c-2.7,1.42-5.84,2-8.82,2.88-1.11.31-1.49.67-1.42,1.87q1.6,27.1,3.09,54.22c.07,1.34.71,1.35,1.69,1.35q34.43,0,68.85,0c2.25,0,2.25,0,2.25,2.22q0,11.28,0,22.56c0,1.9,0,1.91-2,1.9l-66,0Zm-39.28-21a104,104,0,0,0-20.1,12.49,106,106,0,0,0-36.6,56,109.75,109.75,0,0,0-3.35,21,88.67,88.67,0,0,0,1,18.61,107,107,0,0,0,8.68,29.76,104.82,104.82,0,0,0,31.58,39.42,102,102,0,0,0,22.72,13.28,103.87,103.87,0,0,0,24.31,6.92,99.64,99.64,0,0,0,25.4.92A107.42,107.42,0,0,0,434,588.5a105.75,105.75,0,0,0,34.68-19.2,103.92,103.92,0,0,0,25.87-31.77,2.64,2.64,0,0,0,.1-2.72q-8.57-17.42-17.07-34.89c-.18-.36-.43-.68-.81-1.28-.13.61-.21.88-.25,1.16A72.81,72.81,0,0,1,468.81,524c-9.6,17.95-23.94,30.48-43.19,37.21a73.27,73.27,0,0,1-40.91,2.15,74.2,74.2,0,0,1-27.36-12.38A76,76,0,0,1,335.49,452a73,73,0,0,1,23.93-25.89,2.19,2.19,0,0,0,1.15-2.29c-.72-8.82-1.37-17.65-2.05-26.48-.07-.87-.18-1.74-.29-2.84C357.7,394.74,357.47,394.8,357.26,394.9Z" transform="translate(-113.75 -3.1)"/><path d="M198,277.39V424.93H113.75V3.18c.52,0,1-.07,1.56-.07q103.65,0,207.3,0c20.72,0,40.59,3.9,59.29,12.95C410.12,29.71,429.61,51.48,441,80.61a150.58,150.58,0,0,1,9.29,40.15,195.3,195.3,0,0,1,.24,36.29c-2,22.73-8,44.18-20.66,63.44-12.37,18.83-29.22,32.41-49.57,41.77a162.64,162.64,0,0,1-44.7,12.83,229.13,229.13,0,0,1-33.27,2.29q-51,0-102.09,0Zm.09-84.46h1.65q52.15,0,104.31,0a74.47,74.47,0,0,0,32.87-7.2c19.24-9.31,31.93-27.64,29.6-51-1.74-17.43-10.28-30.46-25.63-38.87-11.33-6.21-23.71-8.33-36.46-8.36q-52.38-.11-104.75,0c-.52,0-1,0-1.58.07Z" transform="translate(-113.75 -3.1)"/></svg>