<?xml version="1.0" encoding="utf-8"?>
<svg version="1.1" id="Livello_1" xmlns="http://www.w3.org/2000/svg" xmlns:xlink="http://www.w3.org/1999/xlink" x="0px" y="0px"
	 viewBox="0 0 1116.6 320.3" style="enable-background:new 0 0 1116.6 320.3;" xml:space="preserve">
<style type="text/css">
	.st0{fill:none;stroke:#000000;stroke-width:0.25;stroke-miterlimit:10;}
</style>
<path class="st0" d="M28.3,318.9V0"/>
<path d="M1110.9,145.1c-3.9-4-9.2-6-14.7-5.7l-66.3,3.7l36.5-41.5c5.2-5.9,6.7-13.8,4.6-20.9c-1-4.8-4-9.2-8.5-12
	c-0.1-0.1-87.1-50.6-87.1-50.6c-7.1-4.1-16.1-3.2-22.2,2.3l-42.5,37.9c-7.8,7-8.5,19-1.5,26.9c7,7.8,19,8.5,26.9,1.5l32.2-28.7
	l26.7,15.5l-47,53.6c-19.5,3.2-37,12.2-50.8,25.1l24.6,24.6c11.1-10.1,25.9-16.3,42-16.3c34.5,0,62.5,28,62.5,62.5
	c0,16.2-6.2,30.9-16.3,42l24.6,24.6c16.4-17.4,26.4-40.8,26.4-66.6c0-15.3-3.6-29.9-9.9-42.8l25.7-1.4l-6.2,76.6
	c-0.8,10.5,6.9,19.6,17.4,20.5c0.5,0,1,0,1.6,0c9.8,0,18.1-7.5,18.9-17.5l8-98.3C1116.7,154.4,1114.7,149,1110.9,145.1z
	 M1075.7,63.6c17.6,0,31.8-14.2,31.8-31.8S1093.2,0,1075.7,0s-31.8,14.2-31.8,31.8C1043.9,49.4,1058.1,63.6,1075.7,63.6z
	 M963.6,285.2c-34.5,0-62.5-28-62.5-62.5c0-13,4-25.1,10.8-35.1l-24.8-24.8c-13,16.5-20.7,37.3-20.7,59.9
	c0,53.7,43.5,97.2,97.2,97.2c22.6,0,43.4-7.7,59.9-20.7l-24.8-24.8C988.7,281.2,976.6,285.2,963.6,285.2z"/>
</svg>
